# xmcd CD database file
#
# Track frame offsets:
#	182
#	15822
#	46002
#	82675
#	114637
#	128545
#	150530
#	166842
#	187257
#	198915
#	209292
#	221212
#
# Disc length: 3131 seconds
#
# Revision: 0
# Processed by: cddbd v1.5.1PL0 Copyright (c) Steve Scherf et al.
# Submitted via: CDex 1.50beta8
#
DISCID=900c390c
DTITLE=タブラトゥーラ - Tablatura 5
DYEAR=1996
DGENRE=New Age
TTITLE0=ワルプルギスの夜
TTITLE1=夜の蟹
TTITLE2=エル・ソンブレロ
TTITLE3=オード[頌歌]
TTITLE4=ル・ジタン
TTITLE5=海の記憶
TTITLE6=カントリーダンス
TTITLE7=ビリャンシーコス
TTITLE8=スプリングチューン
TTITLE9=オリーブ
TTITLE10=火の玉小僧
TTITLE11=オンザグラス
EXTD=YEAR: 1996
EXTT0=
EXTT1=
EXTT2=
EXTT3=
EXTT4=
EXTT5=
EXTT6=
EXTT7=
EXTT8=
EXTT9=
EXTT10=
EXTT11=
PLAYORDER=
